<?xml version="1.0" encoding="UTF-8"?>
<svg xmlns="http://www.w3.org/2000/svg" xmlns:xlink="http://www.w3.org/1999/xlink" width="25pt" height="100pt" viewBox="0 0 128 128" version="1.1">
<g id="surface1">
<path style=" stroke:none;fill-rule:nonzero;fill:rgb(100%,100%,100%);fill-opacity:1;" d="M 44 54 L 84 54 C 86.210938 54 88 52.210938 88 50 L 88 46 C 88 43.789062 86.210938 42 84 42 L 44 42 C 41.789062 42 40 43.789062 40 46 L 40 50 C 40 52.210938 41.789062 54 44 54 Z M 40 74 C 40 76.210938 41.789062 78 44 78 L 84 78 C 86.210938 78 88 76.210938 88 74 L 88 70 C 88 67.789062 86.210938 66 84 66 L 44 66 C 41.789062 66 40 67.789062 40 70 Z M 64 104.28125 C 59.894531 104.28125 55.789062 103.015625 52.285156 100.484375 L 0 62.714844 L 0 116 C 0 122.628906 5.371094 128 12 128 L 116 128 C 122.628906 128 128 122.628906 128 116 L 128 62.714844 L 75.714844 100.484375 C 72.210938 103.015625 68.105469 104.28125 64 104.28125 Z M 123.402344 40.738281 C 121.191406 39.003906 119.09375 37.371094 116 35.035156 L 116 24 C 116 17.371094 110.628906 12 104 12 L 84.613281 12 C 83.851562 11.449219 83.144531 10.933594 82.351562 10.359375 C 78.148438 7.292969 69.800781 -0.0859375 64 0 C 58.199219 -0.0859375 49.851562 7.292969 45.648438 10.359375 C 44.855469 10.933594 44.148438 11.449219 43.386719 12 L 24 12 C 17.371094 12 12 17.371094 12 24 L 12 35.035156 C 8.90625 37.367188 6.808594 39.003906 4.597656 40.738281 C 1.695312 43.011719 0 46.492188 0 50.179688 L 0 52.84375 L 24 70.179688 L 24 24 L 104 24 L 104 70.179688 L 128 52.84375 L 128 50.179688 C 128 46.496094 126.304688 43.011719 123.402344 40.738281 Z M 123.402344 40.738281 "/>
</g>
</svg>
