<?xml version="1.0" encoding="UTF-8"?>
<svg xmlns="http://www.w3.org/2000/svg" xmlns:xlink="http://www.w3.org/1999/xlink" width="25pt" height="100pt" viewBox="0 0 124 124" version="1.1">
<g id="surface1">
<path style=" stroke:none;fill-rule:nonzero;fill:rgb(100%,100%,100%);fill-opacity:1;" d="M 41.476562 99.351562 C 41.476562 99.851562 40.898438 100.25 40.175781 100.25 C 39.351562 100.324219 38.773438 99.925781 38.773438 99.351562 C 38.773438 98.851562 39.351562 98.449219 40.074219 98.449219 C 40.824219 98.375 41.476562 98.773438 41.476562 99.351562 Z M 33.699219 98.226562 C 33.523438 98.726562 34.023438 99.300781 34.773438 99.449219 C 35.425781 99.699219 36.175781 99.449219 36.324219 98.949219 C 36.476562 98.449219 36 97.875 35.25 97.648438 C 34.601562 97.476562 33.875 97.726562 33.699219 98.226562 Z M 44.75 97.800781 C 44.023438 97.976562 43.523438 98.449219 43.601562 99.023438 C 43.675781 99.523438 44.324219 99.851562 45.074219 99.675781 C 45.800781 99.5 46.300781 99.023438 46.226562 98.523438 C 46.148438 98.050781 45.476562 97.726562 44.75 97.800781 Z M 61.199219 2 C 26.523438 2 0 28.324219 0 63 C 0 90.726562 17.449219 114.449219 42.375 122.800781 C 45.574219 123.375 46.699219 121.398438 46.699219 119.773438 C 46.699219 118.226562 46.625 109.675781 46.625 104.425781 C 46.625 104.425781 29.125 108.175781 25.449219 96.976562 C 25.449219 96.976562 22.601562 89.699219 18.5 87.824219 C 18.5 87.824219 12.773438 83.898438 18.898438 83.976562 C 18.898438 83.976562 25.125 84.476562 28.550781 90.425781 C 34.023438 100.074219 43.199219 97.300781 46.773438 95.648438 C 47.351562 91.648438 48.976562 88.875 50.773438 87.226562 C 36.800781 85.675781 22.699219 83.648438 22.699219 59.601562 C 22.699219 52.726562 24.601562 49.273438 28.601562 44.875 C 27.949219 43.25 25.824219 36.550781 29.25 27.898438 C 34.476562 26.273438 46.5 34.648438 46.5 34.648438 C 51.5 33.25 56.875 32.523438 62.199219 32.523438 C 67.523438 32.523438 72.898438 33.25 77.898438 34.648438 C 77.898438 34.648438 89.925781 26.25 95.148438 27.898438 C 98.574219 36.574219 96.449219 43.25 95.800781 44.875 C 99.800781 49.300781 102.25 52.75 102.25 59.601562 C 102.25 83.726562 87.523438 85.648438 73.550781 87.226562 C 75.851562 89.199219 77.800781 92.949219 77.800781 98.824219 C 77.800781 107.25 77.726562 117.675781 77.726562 119.726562 C 77.726562 121.351562 78.875 123.324219 82.050781 122.75 C 107.050781 114.449219 124 90.726562 124 63 C 124 28.324219 95.875 2 61.199219 2 Z M 24.300781 88.226562 C 23.976562 88.476562 24.050781 89.050781 24.476562 89.523438 C 24.875 89.925781 25.449219 90.101562 25.773438 89.773438 C 26.101562 89.523438 26.023438 88.949219 25.601562 88.476562 C 25.199219 88.074219 24.625 87.898438 24.300781 88.226562 Z M 21.601562 86.199219 C 21.425781 86.523438 21.675781 86.925781 22.175781 87.175781 C 22.574219 87.425781 23.074219 87.351562 23.25 87 C 23.425781 86.675781 23.175781 86.273438 22.675781 86.023438 C 22.175781 85.875 21.773438 85.949219 21.601562 86.199219 Z M 29.699219 95.101562 C 29.300781 95.425781 29.449219 96.175781 30.023438 96.648438 C 30.601562 97.226562 31.324219 97.300781 31.648438 96.898438 C 31.976562 96.574219 31.824219 95.824219 31.324219 95.351562 C 30.773438 94.773438 30.023438 94.699219 29.699219 95.101562 Z M 26.851562 91.425781 C 26.449219 91.675781 26.449219 92.324219 26.851562 92.898438 C 27.25 93.476562 27.925781 93.726562 28.25 93.476562 C 28.648438 93.148438 28.648438 92.5 28.25 91.925781 C 27.898438 91.351562 27.25 91.101562 26.851562 91.425781 Z M 26.851562 91.425781 "/>
</g>
</svg>
