<?xml version="1.0" encoding="UTF-8"?>
<svg xmlns="http://www.w3.org/2000/svg" xmlns:xlink="http://www.w3.org/1999/xlink" width="25pt" height="100pt" viewBox="0 0 112 128" version="1.1">
<g id="surface1">
<path style=" stroke:none;fill-rule:nonzero;fill:rgb(100%,100%,100%);fill-opacity:1;" d="M 56.023438 35.25 C 40.125 35.25 27.300781 48.074219 27.300781 63.976562 C 27.300781 79.875 40.125 92.699219 56.023438 92.699219 C 71.925781 92.699219 84.75 79.875 84.75 63.976562 C 84.75 48.074219 71.925781 35.25 56.023438 35.25 Z M 56.023438 82.648438 C 45.75 82.648438 37.351562 74.273438 37.351562 63.976562 C 37.351562 53.675781 45.726562 45.300781 56.023438 45.300781 C 66.324219 45.300781 74.699219 53.675781 74.699219 63.976562 C 74.699219 74.273438 66.300781 82.648438 56.023438 82.648438 Z M 92.625 34.074219 C 92.625 37.800781 89.625 40.773438 85.925781 40.773438 C 82.199219 40.773438 79.226562 37.773438 79.226562 34.074219 C 79.226562 30.375 82.226562 27.375 85.925781 27.375 C 89.625 27.375 92.625 30.375 92.625 34.074219 Z M 111.648438 40.875 C 111.226562 31.898438 109.175781 23.949219 102.601562 17.398438 C 96.050781 10.851562 88.101562 8.800781 79.125 8.351562 C 69.875 7.824219 42.148438 7.824219 32.898438 8.351562 C 23.949219 8.773438 16 10.824219 9.425781 17.375 C 2.851562 23.925781 0.824219 31.875 0.375 40.851562 C -0.148438 50.101562 -0.148438 77.824219 0.375 87.074219 C 0.800781 96.050781 2.851562 104 9.425781 110.550781 C 16 117.101562 23.925781 119.148438 32.898438 119.601562 C 42.148438 120.125 69.875 120.125 79.125 119.601562 C 88.101562 119.175781 96.050781 117.125 102.601562 110.550781 C 109.148438 104 111.199219 96.050781 111.648438 87.074219 C 112.175781 77.824219 112.175781 50.125 111.648438 40.875 Z M 99.699219 97 C 97.75 101.898438 93.976562 105.675781 89.050781 107.648438 C 81.675781 110.574219 64.175781 109.898438 56.023438 109.898438 C 47.875 109.898438 30.351562 110.550781 23 107.648438 C 18.101562 105.699219 14.324219 101.925781 12.351562 97 C 9.425781 89.625 10.101562 72.125 10.101562 63.976562 C 10.101562 55.824219 9.449219 38.300781 12.351562 30.949219 C 14.300781 26.050781 18.074219 22.273438 23 20.300781 C 30.375 17.375 47.875 18.050781 56.023438 18.050781 C 64.175781 18.050781 81.699219 17.398438 89.050781 20.300781 C 93.949219 22.25 97.726562 26.023438 99.699219 30.949219 C 102.625 38.324219 101.949219 55.824219 101.949219 63.976562 C 101.949219 72.125 102.625 89.648438 99.699219 97 Z M 99.699219 97 "/>
</g>
</svg>
