<?xml version="1.0" encoding="UTF-8"?>
<svg xmlns="http://www.w3.org/2000/svg" xmlns:xlink="http://www.w3.org/1999/xlink" width="25pt" height="100pt" viewBox="0 0 112 128" version="1.1">
<g id="surface1">
<path style=" stroke:none;fill-rule:nonzero;fill:rgb(100%,100%,100%);fill-opacity:1;" d="M 25.070312 112 L 1.851562 112 L 1.851562 37.226562 L 25.070312 37.226562 Z M 13.449219 27.023438 C 6.023438 27.023438 0 20.875 0 13.449219 C 0 6.023438 6.019531 0.00390625 13.449219 0.00390625 C 20.875 0.00390625 26.894531 6.023438 26.894531 13.449219 C 26.894531 20.875 20.871094 27.023438 13.449219 27.023438 Z M 111.976562 112 L 88.804688 112 L 88.804688 75.601562 C 88.804688 66.925781 88.628906 55.800781 76.734375 55.800781 C 64.660156 55.800781 62.808594 65.226562 62.808594 74.976562 L 62.808594 112 L 39.613281 112 L 39.613281 37.226562 L 61.886719 37.226562 L 61.886719 47.425781 L 62.210938 47.425781 C 65.308594 41.550781 72.882812 35.351562 84.179688 35.351562 C 107.679688 35.351562 112 50.824219 112 70.925781 L 112 112 Z M 111.976562 112 "/>
</g>
</svg>
