<?xml version="1.0" encoding="UTF-8"?>
<svg xmlns="http://www.w3.org/2000/svg" xmlns:xlink="http://www.w3.org/1999/xlink" width="25pt" height="100pt" viewBox="0 0 112 128" version="1.1">
<g id="surface1">
<path style=" stroke:none;fill-rule:nonzero;fill:rgb(100%,100%,100%);fill-opacity:1;" d="M 95.226562 24.273438 C 84.75 13.773438 70.800781 8 55.976562 8 C 25.375 8 0.476562 32.898438 0.476562 63.5 C 0.476562 73.273438 3.023438 82.824219 7.875 91.25 L 0 120 L 29.425781 112.273438 C 37.523438 116.699219 46.648438 119.023438 55.949219 119.023438 L 55.976562 119.023438 C 86.550781 119.023438 112 94.125 112 63.523438 C 112 48.699219 105.699219 34.773438 95.226562 24.273438 Z M 55.976562 109.675781 C 47.675781 109.675781 39.550781 107.449219 32.476562 103.25 L 30.800781 102.25 L 13.351562 106.824219 L 18 89.800781 L 16.898438 88.050781 C 12.273438 80.699219 9.851562 72.226562 9.851562 63.5 C 9.851562 38.074219 30.550781 17.375 56 17.375 C 68.324219 17.375 79.898438 22.175781 88.601562 30.898438 C 97.300781 39.625 102.648438 51.199219 102.625 63.523438 C 102.625 88.976562 81.398438 109.675781 55.976562 109.675781 Z M 81.273438 75.125 C 79.898438 74.425781 73.074219 71.074219 71.800781 70.625 C 70.523438 70.148438 69.601562 69.925781 68.675781 71.324219 C 67.75 72.726562 65.101562 75.824219 64.273438 76.773438 C 63.476562 77.699219 62.648438 77.824219 61.273438 77.125 C 53.125 73.050781 47.773438 69.851562 42.398438 60.625 C 40.976562 58.175781 43.824219 58.351562 46.476562 53.050781 C 46.925781 52.125 46.699219 51.324219 46.351562 50.625 C 46 49.925781 43.226562 43.101562 42.074219 40.324219 C 40.949219 37.625 39.800781 38 38.949219 37.949219 C 38.148438 37.898438 37.226562 37.898438 36.300781 37.898438 C 35.375 37.898438 33.875 38.25 32.601562 39.625 C 31.324219 41.023438 27.75 44.375 27.75 51.199219 C 27.75 58.023438 32.726562 64.625 33.398438 65.550781 C 34.101562 66.476562 43.175781 80.476562 57.101562 86.5 C 65.898438 90.300781 69.351562 90.625 73.75 89.976562 C 76.425781 89.574219 81.949219 86.625 83.101562 83.375 C 84.25 80.125 84.25 77.351562 83.898438 76.773438 C 83.574219 76.148438 82.648438 75.800781 81.273438 75.125 Z M 81.273438 75.125 "/>
</g>
</svg>
